<svg xmlns="http://www.w3.org/2000/svg" viewBox="0 0 32 32" fill="none">
  <!-- Background -->
  <rect width="32" height="32" rx="6" fill="url(#gradient)"/>
  
  <!-- Document icon base -->
  <path d="M9 6h10l4 4v12a2 2 0 01-2 2H11a2 2 0 01-2-2V8a2 2 0 012-2z" fill="white" opacity="0.9"/>
  
  <!-- Folded corner -->
  <path d="M19 6v4h4" fill="white" opacity="0.7"/>
  
  <!-- AI sparkles/nodes -->
  <circle cx="14" cy="14" r="1.5" fill="url(#gradient2)"/>
  <circle cx="18" cy="16" r="1.5" fill="url(#gradient2)"/>
  <circle cx="14" cy="18" r="1.5" fill="url(#gradient2)"/>
  
  <!-- Connecting lines suggesting neural network -->
  <path d="M14 14l4 2M14 14l0 4M14 18l4-2" stroke="url(#gradient2)" stroke-width="0.5" opacity="0.8"/>
  
  <!-- Gradient definitions -->
  <defs>
    <linearGradient id="gradient" x1="0%" y1="0%" x2="100%" y2="100%">
      <stop offset="0%" style="stop-color:#3992ff;stop-opacity:1" />
      <stop offset="100%" style="stop-color:#8b5cf6;stop-opacity:1" />
    </linearGradient>
    <linearGradient id="gradient2" x1="0%" y1="0%" x2="100%" y2="100%">
      <stop offset="0%" style="stop-color:#3992ff;stop-opacity:1" />
      <stop offset="50%" style="stop-color:#ec4899;stop-opacity:1" />
      <stop offset="100%" style="stop-color:#8b5cf6;stop-opacity:1" />
    </linearGradient>
  </defs>
</svg>